<?xml version="1.0" encoding="utf-8"?>
<!-- Generator: Adobe Illustrator 16.0.0, SVG Export Plug-In . SVG Version: 6.00 Build 0)  -->
<!DOCTYPE svg PUBLIC "-//W3C//DTD SVG 1.1//EN" "http://www.w3.org/Graphics/SVG/1.1/DTD/svg11.dtd">
<svg version="1.1" id="Layer_1" xmlns="http://www.w3.org/2000/svg" xmlns:xlink="http://www.w3.org/1999/xlink" x="0px" y="0px"
	 width="478px" height="478px" viewBox="0 0 478 478" enable-background="new 0 0 478 478" xml:space="preserve">
<rect id="poulet" fill="#7CFC00" stroke="#000000" stroke-miterlimit="10" width="478" height="478"/>
<g>
	<g>
		<path d="M94.344,391.306c-2.195-1.591-3.777-4.084-3.5-6.53c0.979-8.632-4.312-16.004-12.865-17.35
			c-1.519-0.24-3.031-0.891-4.398-1.625c-2.581-1.383-5.27-1.892-8.051-1.115c-1.501,0.418-2.425,0.23-3.618-0.85
			c-6.808-6.163-17.476-3.96-20.812,4.405c-0.957,2.401-2.373,3.805-4.593,4.719c-0.496,0.204-1.04,0.435-1.392,0.812
			c-1.108,1.187-2.164,0.895-3.506,0.323c-8.667-3.691-17.999,2.382-18.36,11.774c-0.051,1.342-0.607,2.799-1.327,3.955
			c-2.576,4.145-3.032,8.304-1.302,12.611c-1.246,3.111-0.159,6.99,2.908,9.24c3.366,2.47,7.248,1.181,10.222-1.21
			c0.842-0.08,1.699-0.251,2.573-0.519c1.749-0.536,3.328-1.177,4.802-0.463c0.233,0.174,0.473,0.328,0.716,0.471
			c0.065,0.054,0.13,0.104,0.195,0.165c0.009-0.013,0.016-0.024,0.025-0.038c0.485,0.262,0.989,0.461,1.504,0.612
			c2.86,10.108,9.009,18.964,17.453,25.239c-0.515,6.182-2.161,12.244-5.228,18.185c-3.423,2.093-7.599,0.579-11.183-0.413
			c-3.169-0.877-6.254-1.201-9.418-0.191c-0.655,0.209-0.959,0.727-0.992,1.264c-0.004,0.015-0.011,0.027-0.014,0.042
			c-0.24,1.031-0.48,2.062-0.72,3.093c-0.224,0.964,0.471,1.624,1.224,1.754c0.118,0.03,0.243,0.053,0.382,0.053h58.549
			c0.513,0,0.878-0.227,1.104-0.546c0.338-0.265,0.561-0.669,0.561-1.121v-2.143c0-0.634-0.434-1.177-1.015-1.357
			c-0.222-0.188-0.515-0.308-0.889-0.308H65.687c-0.878-1.016-1.773-2.041-2.697-3.056c-2.57-2.823-3.704-5.964-2.548-9.765
			c0.401-1.32,0.69-2.693,0.857-4.063c0.494-4.061,0.955-8.139,1.423-12.277c5.938-0.565,11.307-3.098,15.475-7.394
			c1.729-0.004,3.281-0.517,4.576-1.387l0.52-0.161c2.82,2.276,7.172,2.511,10.46,1.298c3.046-1.125,5.68-4.172,5.771-7.521
			c0.009-0.313-0.007-0.625-0.034-0.932C101.859,402.879,99.691,395.178,94.344,391.306z M42.703,409.702
			c0.034-0.013,0.061-0.022,0.095-0.035c0.614-0.233,1.682,0.034,2.234,0.464c0.778,0.604,1.515,1.264,2.234,1.936
			c0.015,0.057,0.015,0.11,0.033,0.168c1.099,3.672,2.198,7.346,3.296,11.018c0.262,1.851,0.429,3.689,0.52,5.519
			C45.43,424.095,42.32,417.153,42.703,409.702z M64.032,420.316c0.257-0.615,0.516-1.23,0.784-1.844c0.088,0,0.178,0,0.268-0.001
			c0-0.212,0.004-0.424,0.012-0.638c0.732-1.645,1.534-3.252,2.434-4.789c1.146,1.011,2.34,1.918,3.611,2.658
			C69.012,417.586,66.625,419.131,64.032,420.316z"/>
	</g>
</g>
<g>
	<g>
		<path d="M208.344,391.306c-2.195-1.591-3.777-4.084-3.5-6.53c0.979-8.632-4.312-16.004-12.865-17.35
			c-1.519-0.24-3.031-0.891-4.398-1.625c-2.581-1.383-5.27-1.892-8.051-1.115c-1.501,0.418-2.426,0.23-3.618-0.85
			c-6.808-6.163-17.476-3.96-20.812,4.405c-0.957,2.401-2.373,3.805-4.593,4.719c-0.496,0.204-1.04,0.435-1.392,0.812
			c-1.108,1.187-2.164,0.895-3.506,0.323c-8.667-3.691-17.999,2.382-18.36,11.774c-0.051,1.342-0.607,2.799-1.327,3.955
			c-2.576,4.145-3.032,8.304-1.302,12.611c-1.246,3.111-0.159,6.99,2.908,9.24c3.366,2.47,7.248,1.181,10.222-1.21
			c0.842-0.08,1.699-0.251,2.573-0.519c1.749-0.536,3.328-1.177,4.802-0.463c0.233,0.174,0.473,0.328,0.716,0.471
			c0.065,0.054,0.13,0.104,0.195,0.165c0.009-0.013,0.016-0.024,0.025-0.038c0.485,0.262,0.989,0.461,1.504,0.612
			c2.86,10.108,9.009,18.964,17.453,25.239c-0.515,6.182-2.161,12.244-5.228,18.185c-3.423,2.093-7.599,0.579-11.183-0.413
			c-3.169-0.877-6.254-1.201-9.418-0.191c-0.655,0.209-0.959,0.727-0.992,1.264c-0.004,0.015-0.011,0.027-0.014,0.042
			c-0.24,1.031-0.48,2.062-0.72,3.093c-0.224,0.964,0.471,1.624,1.224,1.754c0.118,0.03,0.243,0.053,0.382,0.053h58.549
			c0.513,0,0.878-0.227,1.104-0.546c0.338-0.265,0.561-0.669,0.561-1.121v-2.143c0-0.634-0.434-1.177-1.015-1.357
			c-0.222-0.188-0.515-0.308-0.889-0.308h-17.691c-0.878-1.016-1.772-2.041-2.697-3.056c-2.57-2.823-3.704-5.964-2.548-9.765
			c0.4-1.32,0.689-2.693,0.856-4.063c0.493-4.061,0.954-8.139,1.423-12.277c5.938-0.565,11.307-3.098,15.475-7.394
			c1.729-0.004,3.281-0.517,4.576-1.387l0.52-0.161c2.82,2.276,7.172,2.511,10.46,1.298c3.046-1.125,5.68-4.172,5.771-7.521
			c0.009-0.313-0.007-0.625-0.034-0.932C215.859,402.879,213.691,395.178,208.344,391.306z M156.703,409.702
			c0.034-0.013,0.061-0.022,0.095-0.035c0.614-0.233,1.682,0.034,2.234,0.464c0.778,0.604,1.515,1.264,2.234,1.936
			c0.015,0.057,0.015,0.11,0.033,0.168c1.099,3.672,2.198,7.346,3.296,11.018c0.262,1.851,0.429,3.689,0.52,5.519
			C159.43,424.095,156.32,417.153,156.703,409.702z M178.032,420.316c0.257-0.615,0.516-1.23,0.784-1.844
			c0.088,0,0.178,0,0.268-0.001c0-0.212,0.004-0.424,0.012-0.638c0.732-1.645,1.534-3.252,2.434-4.789
			c1.146,1.011,2.34,1.918,3.611,2.658C183.012,417.586,180.625,419.131,178.032,420.316z"/>
	</g>
</g>
<g>
	<g>
		<path d="M323.756,393.761c-2.195-1.591-3.777-4.084-3.5-6.53c0.979-8.632-4.312-16.004-12.865-17.35
			c-1.519-0.24-3.031-0.891-4.398-1.625c-2.581-1.383-5.27-1.892-8.051-1.115c-1.501,0.418-2.426,0.23-3.618-0.85
			c-6.808-6.163-17.476-3.96-20.812,4.405c-0.957,2.401-2.373,3.805-4.593,4.719c-0.495,0.204-1.04,0.435-1.392,0.812
			c-1.108,1.187-2.164,0.895-3.506,0.323c-8.667-3.691-18,2.382-18.361,11.774c-0.051,1.342-0.607,2.799-1.326,3.955
			c-2.577,4.145-3.032,8.304-1.303,12.611c-1.246,3.111-0.159,6.99,2.908,9.24c3.365,2.47,7.247,1.181,10.222-1.21
			c0.842-0.08,1.698-0.251,2.573-0.519c1.748-0.536,3.327-1.177,4.802-0.463c0.233,0.174,0.474,0.328,0.716,0.471
			c0.065,0.054,0.131,0.104,0.195,0.165c0.01-0.013,0.016-0.024,0.025-0.038c0.484,0.262,0.988,0.461,1.504,0.612
			c2.86,10.108,9.01,18.964,17.453,25.239c-0.516,6.182-2.161,12.244-5.228,18.185c-3.423,2.093-7.599,0.579-11.183-0.413
			c-3.17-0.877-6.255-1.201-9.418-0.191c-0.655,0.209-0.96,0.727-0.992,1.264c-0.004,0.015-0.011,0.027-0.014,0.042
			c-0.24,1.031-0.48,2.062-0.721,3.093c-0.225,0.964,0.471,1.624,1.224,1.754c0.118,0.03,0.243,0.053,0.382,0.053h58.549
			c0.513,0,0.878-0.227,1.104-0.546c0.338-0.265,0.561-0.669,0.561-1.121v-2.143c0-0.634-0.434-1.177-1.015-1.357
			c-0.222-0.188-0.515-0.308-0.889-0.308h-17.691c-0.878-1.016-1.772-2.041-2.697-3.056c-2.57-2.823-3.704-5.964-2.548-9.765
			c0.4-1.32,0.689-2.693,0.856-4.063c0.493-4.061,0.954-8.139,1.423-12.277c5.938-0.565,11.307-3.098,15.475-7.394
			c1.729-0.004,3.281-0.517,4.576-1.387l0.52-0.161c2.82,2.276,7.172,2.511,10.46,1.298c3.046-1.125,5.68-4.172,5.771-7.521
			c0.009-0.313-0.007-0.625-0.034-0.932C331.271,405.334,329.104,397.633,323.756,393.761z M272.115,412.157
			c0.033-0.013,0.061-0.022,0.095-0.035c0.614-0.233,1.683,0.034,2.234,0.464c0.778,0.604,1.515,1.264,2.233,1.936
			c0.016,0.057,0.016,0.11,0.033,0.168c1.1,3.672,2.198,7.346,3.297,11.018c0.262,1.851,0.43,3.689,0.52,5.519
			C274.842,426.55,271.732,419.608,272.115,412.157z M293.444,422.771c0.257-0.615,0.516-1.23,0.784-1.844
			c0.088,0,0.178,0,0.268-0.001c0-0.212,0.004-0.424,0.012-0.638c0.732-1.645,1.534-3.252,2.434-4.789
			c1.146,1.011,2.34,1.918,3.611,2.658C298.424,420.041,296.037,421.586,293.444,422.771z"/>
	</g>
</g>
<g>
	<g>
		<path d="M446.344,391.306c-2.195-1.591-3.777-4.084-3.5-6.53c0.979-8.632-4.312-16.004-12.865-17.35
			c-1.519-0.24-3.031-0.891-4.398-1.625c-2.581-1.383-5.27-1.892-8.051-1.115c-1.501,0.418-2.426,0.23-3.618-0.85
			c-6.808-6.163-17.476-3.96-20.812,4.405c-0.957,2.401-2.373,3.805-4.593,4.719c-0.495,0.204-1.04,0.435-1.392,0.812
			c-1.108,1.187-2.164,0.895-3.506,0.323c-8.667-3.691-18,2.382-18.361,11.774c-0.051,1.342-0.607,2.799-1.326,3.955
			c-2.576,4.145-3.032,8.304-1.303,12.611c-1.246,3.111-0.159,6.99,2.908,9.24c3.365,2.47,7.247,1.181,10.222-1.21
			c0.842-0.08,1.698-0.251,2.573-0.519c1.748-0.536,3.327-1.177,4.802-0.463c0.233,0.174,0.474,0.328,0.716,0.471
			c0.065,0.054,0.131,0.104,0.195,0.165c0.01-0.013,0.016-0.024,0.025-0.038c0.484,0.262,0.988,0.461,1.504,0.612
			c2.86,10.108,9.01,18.964,17.453,25.239c-0.516,6.182-2.161,12.244-5.228,18.185c-3.423,2.093-7.599,0.579-11.183-0.413
			c-3.17-0.877-6.255-1.201-9.418-0.191c-0.655,0.209-0.96,0.727-0.992,1.264c-0.004,0.015-0.011,0.027-0.014,0.042
			c-0.24,1.031-0.48,2.062-0.721,3.093c-0.225,0.964,0.471,1.624,1.224,1.754c0.118,0.03,0.243,0.053,0.382,0.053h58.549
			c0.513,0,0.878-0.227,1.104-0.546c0.338-0.265,0.561-0.669,0.561-1.121v-2.143c0-0.634-0.434-1.177-1.015-1.357
			c-0.222-0.188-0.515-0.308-0.889-0.308h-17.691c-0.878-1.016-1.772-2.041-2.697-3.056c-2.57-2.823-3.704-5.964-2.548-9.765
			c0.4-1.32,0.689-2.693,0.856-4.063c0.493-4.061,0.954-8.139,1.423-12.277c5.938-0.565,11.307-3.098,15.475-7.394
			c1.729-0.004,3.281-0.517,4.576-1.387l0.52-0.161c2.82,2.276,7.172,2.511,10.46,1.298c3.046-1.125,5.68-4.172,5.771-7.521
			c0.009-0.313-0.007-0.625-0.034-0.932C453.859,402.879,451.691,395.178,446.344,391.306z M394.703,409.702
			c0.033-0.013,0.061-0.022,0.095-0.035c0.614-0.233,1.683,0.034,2.234,0.464c0.778,0.604,1.515,1.264,2.233,1.936
			c0.016,0.057,0.016,0.11,0.033,0.168c1.1,3.672,2.198,7.346,3.297,11.018c0.262,1.851,0.43,3.689,0.52,5.519
			C397.43,424.095,394.32,417.153,394.703,409.702z M416.032,420.316c0.257-0.615,0.516-1.23,0.784-1.844
			c0.088,0,0.178,0,0.268-0.001c0-0.212,0.004-0.424,0.012-0.638c0.732-1.645,1.534-3.252,2.434-4.789
			c1.146,1.011,2.34,1.918,3.611,2.658C421.012,417.586,418.625,419.131,416.032,420.316z"/>
	</g>
</g>
<g>
	<g>
		<path d="M153.344,269.993c-2.195-1.591-3.777-4.084-3.5-6.53c0.979-8.632-4.312-16.004-12.865-17.35
			c-1.519-0.24-3.031-0.891-4.398-1.625c-2.581-1.383-5.27-1.892-8.051-1.115c-1.501,0.418-2.426,0.23-3.618-0.85
			c-6.808-6.163-17.476-3.96-20.812,4.405c-0.957,2.401-2.373,3.805-4.593,4.719c-0.496,0.204-1.04,0.435-1.392,0.812
			c-1.108,1.187-2.164,0.895-3.506,0.323c-8.667-3.691-17.999,2.382-18.36,11.774c-0.051,1.342-0.607,2.799-1.327,3.955
			c-2.576,4.145-3.032,8.304-1.302,12.611c-1.246,3.111-0.159,6.99,2.908,9.24c3.366,2.47,7.248,1.181,10.222-1.21
			c0.842-0.08,1.699-0.251,2.573-0.519c1.749-0.536,3.328-1.177,4.802-0.463c0.233,0.174,0.473,0.328,0.716,0.471
			c0.065,0.054,0.13,0.104,0.195,0.165c0.009-0.013,0.016-0.024,0.025-0.038c0.485,0.262,0.989,0.461,1.504,0.612
			c2.86,10.108,9.009,18.964,17.453,25.239c-0.515,6.182-2.161,12.244-5.228,18.185c-3.423,2.093-7.599,0.579-11.183-0.413
			c-3.169-0.877-6.254-1.201-9.418-0.191c-0.655,0.209-0.959,0.727-0.992,1.264c-0.004,0.015-0.011,0.027-0.014,0.042
			c-0.24,1.031-0.48,2.062-0.72,3.093c-0.224,0.964,0.471,1.624,1.224,1.754c0.118,0.03,0.243,0.053,0.382,0.053h58.549
			c0.513,0,0.878-0.227,1.104-0.546c0.338-0.265,0.561-0.669,0.561-1.121v-2.143c0-0.634-0.434-1.177-1.015-1.357
			c-0.222-0.188-0.515-0.308-0.889-0.308h-17.691c-0.878-1.016-1.772-2.041-2.697-3.056c-2.57-2.823-3.704-5.964-2.548-9.765
			c0.4-1.32,0.689-2.693,0.856-4.063c0.493-4.061,0.954-8.139,1.423-12.277c5.938-0.565,11.307-3.098,15.475-7.394
			c1.729-0.004,3.281-0.517,4.576-1.387l0.52-0.161c2.82,2.276,7.172,2.511,10.46,1.298c3.046-1.125,5.68-4.172,5.771-7.521
			c0.009-0.313-0.007-0.625-0.034-0.932C160.859,281.566,158.691,273.865,153.344,269.993z M101.703,288.39
			c0.034-0.013,0.061-0.022,0.095-0.035c0.614-0.233,1.682,0.034,2.234,0.464c0.778,0.604,1.515,1.264,2.234,1.936
			c0.015,0.057,0.015,0.11,0.033,0.168c1.099,3.672,2.198,7.346,3.296,11.018c0.262,1.851,0.429,3.689,0.52,5.519
			C104.43,302.782,101.32,295.841,101.703,288.39z M123.032,299.004c0.257-0.615,0.516-1.23,0.784-1.844
			c0.088,0,0.178,0,0.268-0.001c0-0.212,0.004-0.424,0.012-0.638c0.732-1.645,1.534-3.252,2.434-4.789
			c1.146,1.011,2.34,1.918,3.611,2.658C128.012,296.273,125.625,297.818,123.032,299.004z"/>
	</g>
</g>
<g>
	<g>
		<path d="M278.328,269.993c-2.195-1.591-3.777-4.084-3.5-6.53c0.979-8.632-4.312-16.004-12.865-17.35
			c-1.519-0.24-3.031-0.891-4.398-1.625c-2.581-1.383-5.27-1.892-8.051-1.115c-1.501,0.418-2.426,0.23-3.618-0.85
			c-6.808-6.163-17.476-3.96-20.812,4.405c-0.957,2.401-2.373,3.805-4.593,4.719c-0.496,0.204-1.04,0.435-1.392,0.812
			c-1.108,1.187-2.164,0.895-3.506,0.323c-8.667-3.691-17.999,2.382-18.36,11.774c-0.051,1.342-0.607,2.799-1.327,3.955
			c-2.576,4.145-3.032,8.304-1.302,12.611c-1.246,3.111-0.159,6.99,2.908,9.24c3.366,2.47,7.248,1.181,10.222-1.21
			c0.842-0.08,1.699-0.251,2.573-0.519c1.749-0.536,3.328-1.177,4.802-0.463c0.233,0.174,0.473,0.328,0.716,0.471
			c0.065,0.054,0.13,0.104,0.195,0.165c0.009-0.013,0.016-0.024,0.025-0.038c0.485,0.262,0.989,0.461,1.504,0.612
			c2.86,10.108,9.009,18.964,17.453,25.239c-0.515,6.182-2.161,12.244-5.228,18.185c-3.423,2.093-7.599,0.579-11.183-0.413
			c-3.169-0.877-6.254-1.201-9.418-0.191c-0.655,0.209-0.959,0.727-0.992,1.264c-0.004,0.015-0.011,0.027-0.014,0.042
			c-0.24,1.031-0.48,2.062-0.72,3.093c-0.224,0.964,0.471,1.624,1.224,1.754c0.118,0.03,0.243,0.053,0.382,0.053h58.549
			c0.513,0,0.878-0.227,1.104-0.546c0.338-0.265,0.561-0.669,0.561-1.121v-2.143c0-0.634-0.434-1.177-1.015-1.357
			c-0.222-0.188-0.515-0.308-0.889-0.308h-17.691c-0.878-1.016-1.772-2.041-2.697-3.056c-2.57-2.823-3.704-5.964-2.548-9.765
			c0.4-1.32,0.689-2.693,0.856-4.063c0.493-4.061,0.954-8.139,1.423-12.277c5.938-0.565,11.307-3.098,15.475-7.394
			c1.729-0.004,3.281-0.517,4.576-1.387l0.52-0.161c2.82,2.276,7.172,2.511,10.46,1.298c3.046-1.125,5.68-4.172,5.771-7.521
			c0.009-0.313-0.007-0.625-0.034-0.932C285.844,281.566,283.676,273.865,278.328,269.993z M226.688,288.39
			c0.034-0.013,0.061-0.022,0.095-0.035c0.614-0.233,1.682,0.034,2.234,0.464c0.778,0.604,1.515,1.264,2.234,1.936
			c0.015,0.057,0.015,0.11,0.033,0.168c1.099,3.672,2.198,7.346,3.296,11.018c0.262,1.851,0.429,3.689,0.52,5.519
			C229.415,302.782,226.304,295.841,226.688,288.39z M248.017,299.004c0.257-0.615,0.516-1.23,0.784-1.844
			c0.088,0,0.178,0,0.268-0.001c0-0.212,0.004-0.424,0.012-0.638c0.732-1.645,1.534-3.252,2.434-4.789
			c1.146,1.011,2.34,1.918,3.611,2.658C252.996,296.273,250.609,297.818,248.017,299.004z"/>
	</g>
</g>
<g>
	<g>
		<path d="M404.916,269.993c-2.195-1.591-3.777-4.084-3.5-6.53c0.979-8.632-4.312-16.004-12.865-17.35
			c-1.519-0.24-3.031-0.891-4.398-1.625c-2.581-1.383-5.27-1.892-8.051-1.115c-1.501,0.418-2.426,0.23-3.618-0.85
			c-6.808-6.163-17.476-3.96-20.812,4.405c-0.957,2.401-2.373,3.805-4.593,4.719c-0.495,0.204-1.04,0.435-1.392,0.812
			c-1.108,1.187-2.164,0.895-3.506,0.323c-8.667-3.691-18,2.382-18.361,11.774c-0.051,1.342-0.607,2.799-1.326,3.955
			c-2.576,4.145-3.032,8.304-1.303,12.611c-1.246,3.111-0.159,6.99,2.908,9.24c3.365,2.47,7.247,1.181,10.222-1.21
			c0.842-0.08,1.698-0.251,2.573-0.519c1.748-0.536,3.327-1.177,4.802-0.463c0.233,0.174,0.474,0.328,0.716,0.471
			c0.065,0.054,0.131,0.104,0.195,0.165c0.01-0.013,0.016-0.024,0.025-0.038c0.484,0.262,0.988,0.461,1.504,0.612
			c2.86,10.108,9.01,18.964,17.453,25.239c-0.516,6.182-2.161,12.244-5.228,18.185c-3.423,2.093-7.599,0.579-11.183-0.413
			c-3.17-0.877-6.255-1.201-9.418-0.191c-0.655,0.209-0.96,0.727-0.992,1.264c-0.004,0.015-0.011,0.027-0.014,0.042
			c-0.24,1.031-0.48,2.062-0.721,3.093c-0.225,0.964,0.471,1.624,1.224,1.754c0.118,0.03,0.243,0.053,0.382,0.053h58.549
			c0.513,0,0.878-0.227,1.104-0.546c0.338-0.265,0.561-0.669,0.561-1.121v-2.143c0-0.634-0.434-1.177-1.015-1.357
			c-0.222-0.188-0.515-0.308-0.889-0.308h-17.691c-0.878-1.016-1.772-2.041-2.697-3.056c-2.57-2.823-3.704-5.964-2.548-9.765
			c0.4-1.32,0.689-2.693,0.856-4.063c0.493-4.061,0.954-8.139,1.423-12.277c5.938-0.565,11.307-3.098,15.475-7.394
			c1.729-0.004,3.281-0.517,4.576-1.387l0.52-0.161c2.82,2.276,7.172,2.511,10.46,1.298c3.046-1.125,5.68-4.172,5.771-7.521
			c0.009-0.313-0.007-0.625-0.034-0.932C412.432,281.566,410.264,273.865,404.916,269.993z M353.275,288.39
			c0.033-0.013,0.061-0.022,0.095-0.035c0.614-0.233,1.683,0.034,2.234,0.464c0.778,0.604,1.515,1.264,2.233,1.936
			c0.016,0.057,0.016,0.11,0.033,0.168c1.1,3.672,2.198,7.346,3.297,11.018c0.262,1.851,0.43,3.689,0.52,5.519
			C356.002,302.782,352.893,295.841,353.275,288.39z M374.604,299.004c0.257-0.615,0.516-1.23,0.784-1.844
			c0.088,0,0.178,0,0.268-0.001c0-0.212,0.004-0.424,0.012-0.638c0.732-1.645,1.534-3.252,2.434-4.789
			c1.146,1.011,2.34,1.918,3.611,2.658C379.584,296.273,377.197,297.818,374.604,299.004z"/>
	</g>
</g>
<g>
	<g>
		<path d="M450.344,161.603c-2.195-1.591-3.777-4.084-3.5-6.53c0.979-8.632-4.312-16.004-12.865-17.35
			c-1.519-0.24-3.031-0.891-4.398-1.625c-2.581-1.383-5.27-1.892-8.051-1.115c-1.501,0.418-2.426,0.23-3.618-0.85
			c-6.808-6.163-17.476-3.96-20.812,4.405c-0.957,2.401-2.373,3.805-4.593,4.719c-0.495,0.204-1.04,0.435-1.392,0.812
			c-1.108,1.187-2.164,0.895-3.506,0.323c-8.667-3.691-18,2.382-18.361,11.774c-0.051,1.342-0.607,2.799-1.326,3.955
			c-2.576,4.145-3.032,8.304-1.303,12.611c-1.246,3.111-0.159,6.99,2.908,9.24c3.365,2.47,7.247,1.181,10.222-1.21
			c0.842-0.08,1.698-0.251,2.573-0.519c1.748-0.536,3.327-1.177,4.802-0.463c0.233,0.174,0.474,0.328,0.716,0.471
			c0.065,0.054,0.131,0.104,0.195,0.165c0.01-0.013,0.016-0.024,0.025-0.038c0.484,0.262,0.988,0.461,1.504,0.612
			c2.86,10.108,9.01,18.964,17.453,25.239c-0.516,6.182-2.161,12.244-5.228,18.185c-3.423,2.093-7.599,0.579-11.183-0.413
			c-3.17-0.877-6.255-1.201-9.418-0.191c-0.655,0.209-0.96,0.727-0.992,1.264c-0.004,0.015-0.011,0.027-0.014,0.042
			c-0.24,1.031-0.48,2.062-0.721,3.093c-0.225,0.964,0.471,1.624,1.224,1.754c0.118,0.03,0.243,0.053,0.382,0.053h58.549
			c0.513,0,0.878-0.227,1.104-0.546c0.338-0.265,0.561-0.669,0.561-1.121v-2.143c0-0.634-0.434-1.177-1.015-1.357
			c-0.222-0.188-0.515-0.308-0.889-0.308h-17.691c-0.878-1.016-1.772-2.041-2.697-3.056c-2.57-2.823-3.704-5.964-2.548-9.765
			c0.4-1.32,0.689-2.693,0.856-4.063c0.493-4.061,0.954-8.139,1.423-12.277c5.938-0.565,11.307-3.098,15.475-7.394
			c1.729-0.004,3.281-0.517,4.576-1.387l0.52-0.161c2.82,2.276,7.172,2.511,10.46,1.298c3.046-1.125,5.68-4.172,5.771-7.521
			c0.009-0.313-0.007-0.625-0.034-0.932C457.859,173.176,455.691,165.475,450.344,161.603z M398.703,179.999
			c0.033-0.013,0.061-0.022,0.095-0.035c0.614-0.233,1.683,0.034,2.234,0.464c0.778,0.604,1.515,1.264,2.233,1.936
			c0.016,0.057,0.016,0.11,0.033,0.168c1.1,3.672,2.198,7.346,3.297,11.018c0.262,1.851,0.43,3.689,0.52,5.519
			C401.43,194.392,398.32,187.45,398.703,179.999z M420.032,190.613c0.257-0.615,0.516-1.23,0.784-1.844
			c0.088,0,0.178,0,0.268-0.001c0-0.212,0.004-0.424,0.012-0.638c0.732-1.645,1.534-3.252,2.434-4.789
			c1.146,1.011,2.34,1.918,3.611,2.658C425.012,187.883,422.625,189.428,420.032,190.613z"/>
	</g>
</g>
<g>
	<g>
		<path d="M405.188,39.111c-2.195-1.591-3.777-4.084-3.5-6.53c0.979-8.632-4.312-16.004-12.865-17.35
			c-1.519-0.24-3.031-0.891-4.398-1.625c-2.581-1.383-5.27-1.892-8.051-1.115c-1.501,0.418-2.426,0.23-3.618-0.85
			c-6.808-6.163-17.476-3.96-20.812,4.405c-0.957,2.401-2.373,3.805-4.593,4.719c-0.495,0.204-1.04,0.435-1.392,0.812
			c-1.108,1.187-2.164,0.895-3.506,0.323c-8.667-3.691-18,2.382-18.361,11.774c-0.051,1.342-0.607,2.799-1.326,3.955
			c-2.576,4.145-3.032,8.304-1.303,12.611c-1.246,3.111-0.159,6.99,2.908,9.24c3.365,2.47,7.247,1.181,10.222-1.21
			c0.842-0.08,1.698-0.251,2.573-0.519c1.748-0.536,3.327-1.177,4.802-0.463c0.233,0.174,0.474,0.328,0.716,0.471
			c0.065,0.054,0.131,0.104,0.195,0.165c0.01-0.013,0.016-0.024,0.025-0.038c0.484,0.262,0.988,0.461,1.504,0.612
			c2.86,10.108,9.01,18.964,17.453,25.239c-0.516,6.182-2.161,12.244-5.228,18.185c-3.423,2.093-7.599,0.579-11.183-0.413
			c-3.17-0.877-6.255-1.201-9.418-0.191c-0.655,0.209-0.96,0.727-0.992,1.264c-0.004,0.015-0.011,0.027-0.014,0.042
			c-0.24,1.031-0.48,2.062-0.721,3.093c-0.225,0.964,0.471,1.624,1.224,1.754c0.118,0.03,0.243,0.053,0.382,0.053h58.549
			c0.513,0,0.878-0.227,1.104-0.546c0.338-0.265,0.561-0.669,0.561-1.121v-2.143c0-0.634-0.434-1.177-1.015-1.357
			c-0.222-0.188-0.515-0.308-0.889-0.308H376.53c-0.878-1.016-1.772-2.041-2.697-3.056c-2.57-2.823-3.704-5.964-2.548-9.765
			c0.4-1.32,0.689-2.693,0.856-4.063c0.493-4.061,0.954-8.139,1.423-12.277c5.938-0.565,11.307-3.098,15.475-7.394
			c1.729-0.004,3.281-0.517,4.576-1.387l0.52-0.161c2.82,2.276,7.172,2.511,10.46,1.298c3.046-1.125,5.68-4.172,5.771-7.521
			c0.009-0.313-0.007-0.625-0.034-0.932C412.703,50.685,410.535,42.983,405.188,39.111z M353.547,57.508
			c0.033-0.013,0.061-0.022,0.095-0.035c0.614-0.233,1.683,0.034,2.234,0.464c0.778,0.604,1.515,1.264,2.233,1.936
			c0.016,0.057,0.016,0.11,0.033,0.168c1.1,3.672,2.198,7.346,3.297,11.018c0.262,1.851,0.43,3.689,0.52,5.519
			C356.273,71.9,353.164,64.959,353.547,57.508z M374.876,68.122c0.257-0.615,0.516-1.23,0.784-1.844c0.088,0,0.178,0,0.268-0.001
			c0-0.212,0.004-0.424,0.012-0.638c0.732-1.645,1.534-3.252,2.434-4.789c1.146,1.011,2.34,1.918,3.611,2.658
			C379.855,65.392,377.469,66.937,374.876,68.122z"/>
	</g>
</g>
<g>
	<g>
		<path d="M335.916,155.306c-2.195-1.591-3.777-4.084-3.5-6.53c0.979-8.632-4.312-16.004-12.865-17.35
			c-1.519-0.24-3.031-0.891-4.398-1.625c-2.581-1.383-5.27-1.892-8.051-1.115c-1.501,0.418-2.426,0.23-3.618-0.85
			c-6.808-6.163-17.476-3.96-20.812,4.405c-0.957,2.401-2.373,3.805-4.593,4.719c-0.495,0.204-1.04,0.435-1.392,0.812
			c-1.108,1.187-2.164,0.895-3.506,0.323c-8.667-3.691-18,2.382-18.361,11.774c-0.051,1.342-0.607,2.799-1.326,3.955
			c-2.576,4.145-3.032,8.304-1.303,12.611c-1.246,3.111-0.159,6.99,2.908,9.24c3.365,2.47,7.247,1.181,10.222-1.21
			c0.842-0.08,1.698-0.251,2.573-0.519c1.748-0.536,3.327-1.177,4.802-0.463c0.233,0.174,0.474,0.328,0.716,0.471
			c0.065,0.054,0.131,0.104,0.195,0.165c0.01-0.013,0.016-0.024,0.025-0.038c0.484,0.262,0.988,0.461,1.504,0.612
			c2.86,10.108,9.01,18.964,17.453,25.239c-0.516,6.182-2.161,12.244-5.228,18.185c-3.423,2.093-7.599,0.579-11.183-0.413
			c-3.17-0.877-6.255-1.201-9.418-0.191c-0.655,0.209-0.96,0.727-0.992,1.264c-0.004,0.015-0.011,0.027-0.014,0.042
			c-0.24,1.031-0.48,2.062-0.721,3.093c-0.225,0.964,0.471,1.624,1.224,1.754c0.118,0.03,0.243,0.053,0.382,0.053h58.549
			c0.513,0,0.878-0.227,1.104-0.546c0.338-0.265,0.561-0.669,0.561-1.121v-2.143c0-0.634-0.434-1.177-1.015-1.357
			c-0.222-0.188-0.515-0.308-0.889-0.308h-17.691c-0.878-1.016-1.772-2.041-2.697-3.056c-2.57-2.823-3.704-5.964-2.548-9.765
			c0.4-1.32,0.689-2.693,0.856-4.063c0.493-4.061,0.954-8.139,1.423-12.277c5.938-0.565,11.307-3.098,15.475-7.394
			c1.729-0.004,3.281-0.517,4.576-1.387l0.52-0.161c2.82,2.276,7.172,2.511,10.46,1.298c3.046-1.125,5.68-4.172,5.771-7.521
			c0.009-0.313-0.007-0.625-0.034-0.932C343.432,166.879,341.264,159.178,335.916,155.306z M284.275,173.702
			c0.033-0.013,0.061-0.022,0.095-0.035c0.614-0.233,1.683,0.034,2.234,0.464c0.778,0.604,1.515,1.264,2.233,1.936
			c0.016,0.057,0.016,0.11,0.033,0.168c1.1,3.672,2.198,7.346,3.297,11.018c0.262,1.851,0.43,3.689,0.52,5.519
			C287.002,188.095,283.893,181.153,284.275,173.702z M305.604,184.316c0.257-0.615,0.516-1.23,0.784-1.844
			c0.088,0,0.178,0,0.268-0.001c0-0.212,0.004-0.424,0.012-0.638c0.732-1.645,1.534-3.252,2.434-4.789
			c1.146,1.011,2.34,1.918,3.611,2.658C310.584,181.586,308.197,183.131,305.604,184.316z"/>
	</g>
</g>
<rect fill="#7F7F7F" stroke="#000000" stroke-miterlimit="10" width="100" height="100"/>
<g transform="translate(0.000000,1280.000000) scale(0.100000,-0.100000)">
	<path fill="#010101" d="M207.876,12763.808c-1.533-0.366-4.736-1.533-7.144-2.559c-2.334-1.016-4.814-1.816-5.396-1.816
		c-0.659,0-4.009-0.952-7.505-2.109c-3.574-1.172-7.583-2.344-8.975-2.559c-1.455-0.215-5.684-2.48-9.473-4.883
		c-3.794-2.48-8.384-5.254-10.132-6.133c-2.334-1.23-3.643-2.539-4.741-4.805c-0.874-1.748-2.549-3.857-3.862-4.668
		c-1.313-0.801-3.433-2.109-4.741-2.91c-3.057-1.895-8.018-9.404-10.933-16.484c-2.188-5.381-2.402-5.605-6.05-7.139
		c-4.448-1.826-7.871-5.244-9.043-8.965c-0.508-1.533-0.796-6.348-0.723-11.299l0.142-8.594l-5.103-2.93
		c-14.507-8.379-19.761-14.727-20.483-24.561c-0.215-2.842-0.068-4.971,0.366-4.971c0.356,0,3.716,0.674,7.505,1.543
		c10.786,2.324,19.468,3.574,26.318,3.574h6.27l0.366-6.777c0.435-8.457,2.7-14.082,6.694-16.699
		c2.422-1.533,2.637-1.953,2.637-5.098c0-9.99,6.553-14.434,19.756-13.496c4.155,0.293,6.846,0,10.571-1.016
		c5.898-1.602,9.761-1.68,13.77-0.293c1.528,0.586,2.92,0.947,2.988,0.879c0.073-0.068-1.094-5.107-2.695-11.094
		c-23.11-88.135-29.668-118.223-34.116-157.07c-2.627-22.773-3.14-32.744-2.91-52.148c0.576-41.25,0.215-63.711-1.465-85.938
		c-1.382-18.457-1.455-23.047-0.801-29.902c2.192-22.148,9.473-37.383,27.852-58.242c28.276-32.07,37.393-41.113,53.726-53.359
		c18.154-13.711,34.56-22.09,49.209-25.156c16.548-3.418,29.092-10.059,68.599-36.445c26.318-17.637,28.433-19.766,34.702-35.498
		c7.578-19.111,12.974-25.01,40.381-43.594c6.348-4.375,13.779-9.775,16.411-11.963c2.617-2.188,4.878-4.082,4.951-4.16
		c0.508-0.352-3.643-15.898-6.929-26.152c-6.338-19.766-19.243-52.354-26.104-65.977c-1.968-3.945-3.125-5.332-4.946-6.055
		c-3.94-1.68-10.571-2.695-22.021-3.359c-12.246-0.723-14.722-1.465-23.037-6.27c-2.988-1.816-5.898-3.281-6.343-3.281
		c-2.036,0-6.997-6.709-8.452-11.523c-0.513-1.533-0.435-1.602,2.48-1.162c1.675,0.303,5.83,0.078,9.326-0.371
		c3.506-0.508,11.377-1.162,17.568-1.377l11.23-0.508l-11.23-7.432c-6.191-4.092-11.88-8.096-12.607-8.896
		c-1.899-2.109-2.192-6.924-0.879-12.686c0.654-2.764,1.177-6.924,1.177-9.336v-4.375l3.267,2.266
		c1.748,1.25,4.814,2.988,6.714,4.014c1.895,0.938,7.212,4.883,11.812,8.75c4.59,3.779,10.132,7.793,12.246,8.828
		c3.569,1.738,4.438,1.875,10.645,1.514c5.107-0.225,7.798-0.801,11.372-2.256c5.322-2.266,7.729-2.041,8.965,0.742
		c0.654,1.436,0.586,2.461-0.361,5.234c-2.695,7.52-1.094,14.004,5.684,23.252c8.965,12.246,19.834,38.936,39.365,97.031
		l8.896,26.465l9.404,6.338c11.592,7.891,13.628,9.844,21.724,21.514c8.389,12.1,9.482,12.9,18.154,13.76
		c6.631,0.596,39.434,5.488,41.113,6.074c0.586,0.137,0.938-2.129,1.24-7.52c1.162-19.678,2.031-31.484,2.686-35.576
		c0.371-2.471,2.852-12.021,5.469-21.143c3.066-10.928,4.893-18.584,5.186-22.227c0.361-5.244,0.283-5.84-1.963-9.99
		c-1.25-2.412-5.176-7.666-8.75-11.592l-6.348-7.217l-7.578-2.783c-15.674-5.742-23.906-12.891-26.758-23.311l-0.801-2.783
		l2.324,0.381c1.318,0.205,7.441,1.592,13.643,2.988c13.33,2.988,32.871,6.631,41.396,7.646c5.908,0.723,17.578,4.883,30.977,10.938
		c5.918,2.686,7.949,2.773,14.736,0.742c4.443-1.328,6.201-2.422,12.393-7.676c12.461-10.557,12.031-11.582,4.297,9.766
		c-7.939,21.797-7.939,21.797-20.703,28.574c-10.498,5.625-16.104,9.492-18.008,12.256c-1.895,2.92-5.684,18.232-9.609,39.521
		c-2.93,15.371-8.105,45.479-7.881,45.625c0.068,0.078,5.4,3.291,11.807,7.217c22.598,13.779,36.016,23.252,48.848,34.346
		c19.385,16.758,27.705,23.398,37.539,29.805c5.039,3.291,10.43,7.441,12.1,9.199c6.865,7.422,13.418,19.531,16.26,29.6
		c2.266,8.291,4.814,12.314,12.91,20.322c4.082,4.092,7.803,8.105,8.232,8.965c1.748,3.281,2.412,9.189,2.92,28.516
		c0.43,15.605,0.811,20.625,1.68,22.588c2.256,5.176,8.672,12.549,29.014,33.174c11.445,11.66,22.012,22.969,23.389,25.156
		c7.598,11.523,10.361,20.85,11.592,38.555c1.465,21.074,3.35,25.156,17.275,37.334c2.061,1.885,3.73,6.777,4.961,15.166
		c0.879,5.752,1.465,7.285,3.506,9.99c3.271,4.15,9.473,9.326,14.795,12.236c3.359,1.826,4.883,3.281,6.699,6.348
		c2.129,3.34,2.412,4.453,2.129,7.588c-0.146,2.041-1.172,5.752-2.266,8.369c-3.203,7.598-3.359,7.08,1.748,7.656
		c4.229,0.518,4.521,0.654,6.348,3.574c1.006,1.621,2.842,4.082,4.072,5.391c1.973,1.973,2.344,2.988,2.559,6.934
		c0.225,3.936,0.078,4.805-1.602,7.07c-2.92,3.926-3.867,6.484-5.117,13.193c-2.246,12.979-2.314,12.471,1.758,17.217
		c2.051,2.324,3.867,5.02,4.16,5.957c0.361,1.611-0.439,6.709-1.68,9.863c-0.508,1.289-0.146,1.289,7.441,0.781
		c8.887-0.576,11.738-1.816,17.344-7.578c2.266-2.334,3.135-2.764,4.16-2.188c2.764,1.465,3.789,10.859,1.758,15.82
		c-0.742,1.758-6.719,8.242-16.777,18.359l-15.605,15.684l-1.162,4.746c-0.586,2.617-1.084,6.768-1.084,9.316
		c0,4.531-0.088,4.678-3.73,8.613c-2.109,2.188-5.244,4.961-7.07,6.133c-2.91,1.895-3.926,2.188-8.447,2.188
		c-3.643,0-6.709-0.586-10.283-1.836c-2.773-1.016-5.176-1.826-5.312-1.826c-0.156,0-0.225,2.051-0.156,4.609
		c0.068,2.471,0.068,5.088,0.068,5.811c-0.068,0.674-2.471,3.809-5.459,6.953c-6.992,7.354-7.363,8.086-5.762,11.445
		c2.334,4.863-1.455,7.266-14.297,9.102l-8.379,1.152l-2.695,4.385l-2.617,4.307l-4.023-0.078l-3.926-0.078l-2.334,4.238
		c-2.695,4.883-5.029,6.406-10.645,6.992c-3.564,0.371-4.375,0.078-15.02-5.254c-14.58-7.285-22.529-12.1-26.396-15.967
		c-5.469-5.459-23.984-37.754-41.035-71.504c-8.604-16.992-10.43-20.059-17.793-29.746c-8.75-11.455-11.807-14.287-21.426-20.039
		c-13.789-8.242-18.301-10.283-27.559-12.549c-37.539-9.033-169.419-26.973-198.579-26.973c-6.558,0-13.491,2.324-25.078,8.379
		c-22.09,11.67-42.866,29.023-49.067,40.898c-4.302,8.164-9.106,25.742-17.349,62.617c-2.036,9.277-5.542,24.062-7.651,33.037
		c-9.111,37.393-14.067,45.928-41.924,71.943c-7.285,6.855-14.79,13.496-16.689,14.873c-5.83,4.229-12.974,7.139-20.557,8.311
		c-4.155,0.654-8.525,1.895-10.571,2.92c-3.867,1.963-14.145,9.033-14.145,9.697c0,0.215,1.46,2.031,3.208,4.082
		c4.302,4.668,6.562,10.566,6.055,15.664c-0.732,7.295-5.615,14.731-11.733,17.866
		C218.96,12764.169,211.958,12764.828,207.876,12763.808z"/>
</g>
<g>
	<g>
		<path d="M89.328,168.586c-2.195-1.591-3.777-4.084-3.5-6.53c0.979-8.632-4.312-16.004-12.865-17.35
			c-1.519-0.24-3.031-0.891-4.398-1.625c-2.581-1.383-5.27-1.892-8.051-1.115c-1.501,0.418-2.426,0.23-3.618-0.85
			c-6.808-6.163-17.476-3.96-20.812,4.405c-0.957,2.401-2.373,3.805-4.593,4.719c-0.496,0.204-1.04,0.435-1.392,0.812
			c-1.108,1.187-2.164,0.895-3.506,0.323c-8.667-3.691-17.999,2.382-18.36,11.774c-0.051,1.342-0.607,2.799-1.327,3.955
			c-2.576,4.145-3.032,8.304-1.302,12.611c-1.246,3.111-0.159,6.99,2.908,9.24c3.366,2.47,7.248,1.181,10.222-1.21
			c0.842-0.08,1.699-0.251,2.573-0.519c1.749-0.536,3.328-1.177,4.802-0.463c0.233,0.174,0.473,0.328,0.716,0.471
			c0.065,0.054,0.13,0.104,0.195,0.165c0.009-0.013,0.016-0.024,0.025-0.038c0.485,0.262,0.989,0.461,1.504,0.612
			c2.86,10.108,9.009,18.964,17.453,25.239c-0.515,6.182-2.161,12.244-5.228,18.185c-3.423,2.093-7.599,0.579-11.183-0.413
			c-3.169-0.877-6.254-1.201-9.418-0.191c-0.655,0.209-0.959,0.727-0.992,1.264c-0.004,0.015-0.011,0.027-0.014,0.042
			c-0.24,1.031-0.48,2.062-0.72,3.093c-0.224,0.964,0.471,1.624,1.224,1.754c0.118,0.03,0.243,0.053,0.382,0.053h58.549
			c0.513,0,0.878-0.227,1.104-0.546c0.338-0.265,0.561-0.669,0.561-1.121v-2.143c0-0.634-0.434-1.177-1.015-1.357
			c-0.222-0.188-0.515-0.308-0.889-0.308H60.671c-0.878-1.016-1.772-2.041-2.697-3.056c-2.57-2.823-3.704-5.964-2.548-9.765
			c0.4-1.32,0.689-2.693,0.856-4.063c0.493-4.061,0.954-8.139,1.423-12.277c5.938-0.565,11.307-3.098,15.475-7.394
			c1.729-0.004,3.281-0.517,4.576-1.387l0.52-0.161c2.82,2.276,7.172,2.511,10.46,1.298c3.046-1.125,5.68-4.172,5.771-7.521
			c0.009-0.313-0.007-0.625-0.034-0.932C96.844,180.16,94.676,172.459,89.328,168.586z M37.688,186.983
			c0.034-0.013,0.061-0.022,0.095-0.035c0.614-0.233,1.682,0.034,2.234,0.464c0.778,0.604,1.515,1.264,2.234,1.936
			c0.015,0.057,0.015,0.11,0.033,0.168c1.099,3.672,2.198,7.346,3.296,11.018c0.262,1.851,0.429,3.689,0.52,5.519
			C40.415,201.376,37.304,194.434,37.688,186.983z M59.017,197.597c0.257-0.615,0.516-1.23,0.784-1.844c0.088,0,0.178,0,0.268-0.001
			c0-0.212,0.004-0.424,0.012-0.638c0.732-1.645,1.534-3.252,2.434-4.789c1.146,1.011,2.34,1.918,3.611,2.658
			C63.996,194.867,61.609,196.412,59.017,197.597z"/>
	</g>
</g>
<g>
	<g>
		<path d="M208.344,162.29c-2.195-1.591-3.777-4.084-3.5-6.53c0.979-8.632-4.312-16.004-12.865-17.35
			c-1.519-0.24-3.031-0.891-4.398-1.625c-2.581-1.383-5.27-1.892-8.051-1.115c-1.501,0.418-2.426,0.23-3.618-0.85
			c-6.808-6.163-17.476-3.96-20.812,4.405c-0.957,2.401-2.373,3.805-4.593,4.719c-0.496,0.204-1.04,0.435-1.392,0.812
			c-1.108,1.187-2.164,0.895-3.506,0.323c-8.667-3.691-17.999,2.382-18.36,11.774c-0.051,1.342-0.607,2.799-1.327,3.955
			c-2.576,4.145-3.032,8.304-1.302,12.611c-1.246,3.111-0.159,6.99,2.908,9.24c3.366,2.47,7.248,1.181,10.222-1.21
			c0.842-0.08,1.699-0.251,2.573-0.519c1.749-0.536,3.328-1.177,4.802-0.463c0.233,0.174,0.473,0.328,0.716,0.471
			c0.065,0.054,0.13,0.104,0.195,0.165c0.009-0.013,0.016-0.024,0.025-0.038c0.485,0.262,0.989,0.461,1.504,0.612
			c2.86,10.108,9.009,18.964,17.453,25.239c-0.515,6.182-2.161,12.244-5.228,18.185c-3.423,2.093-7.599,0.579-11.183-0.413
			c-3.169-0.877-6.254-1.201-9.418-0.191c-0.655,0.209-0.959,0.727-0.992,1.264c-0.004,0.015-0.011,0.027-0.014,0.042
			c-0.24,1.031-0.48,2.062-0.72,3.093c-0.224,0.964,0.471,1.624,1.224,1.754c0.118,0.03,0.243,0.053,0.382,0.053h58.549
			c0.513,0,0.878-0.227,1.104-0.546c0.338-0.265,0.561-0.669,0.561-1.121v-2.143c0-0.634-0.434-1.177-1.015-1.357
			c-0.222-0.188-0.515-0.308-0.889-0.308h-17.691c-0.878-1.016-1.772-2.041-2.697-3.056c-2.57-2.823-3.704-5.964-2.548-9.765
			c0.4-1.32,0.689-2.693,0.856-4.063c0.493-4.061,0.954-8.139,1.423-12.277c5.938-0.565,11.307-3.098,15.475-7.394
			c1.729-0.004,3.281-0.517,4.576-1.387l0.52-0.161c2.82,2.276,7.172,2.511,10.46,1.298c3.046-1.125,5.68-4.172,5.771-7.521
			c0.009-0.313-0.007-0.625-0.034-0.932C215.859,173.863,213.691,166.162,208.344,162.29z M156.703,180.687
			c0.034-0.013,0.061-0.022,0.095-0.035c0.614-0.233,1.682,0.034,2.234,0.464c0.778,0.604,1.515,1.264,2.234,1.936
			c0.015,0.057,0.015,0.11,0.033,0.168c1.099,3.672,2.198,7.346,3.296,11.018c0.262,1.851,0.429,3.689,0.52,5.519
			C159.43,195.079,156.32,188.138,156.703,180.687z M178.032,191.301c0.257-0.615,0.516-1.23,0.784-1.844
			c0.088,0,0.178,0,0.268-0.001c0-0.212,0.004-0.424,0.012-0.638c0.732-1.645,1.534-3.252,2.434-4.789
			c1.146,1.011,2.34,1.918,3.611,2.658C183.012,188.57,180.625,190.115,178.032,191.301z"/>
	</g>
</g>
<g>
	<g>
		<path d="M278.328,39.111c-2.195-1.591-3.777-4.084-3.5-6.53c0.979-8.632-4.312-16.004-12.865-17.35
			c-1.52-0.24-3.031-0.891-4.398-1.625c-2.582-1.383-5.27-1.892-8.051-1.115c-1.502,0.418-2.426,0.23-3.619-0.85
			c-6.807-6.163-17.476-3.96-20.811,4.405c-0.957,2.401-2.373,3.805-4.593,4.719c-0.496,0.204-1.04,0.435-1.392,0.812
			c-1.108,1.187-2.164,0.895-3.506,0.323c-8.667-3.691-17.999,2.382-18.36,11.774c-0.051,1.342-0.607,2.799-1.327,3.955
			c-2.576,4.145-3.032,8.304-1.302,12.611c-1.246,3.111-0.159,6.99,2.908,9.24c3.366,2.47,7.248,1.181,10.222-1.21
			c0.842-0.08,1.699-0.251,2.573-0.519c1.749-0.536,3.328-1.177,4.802-0.463c0.233,0.174,0.473,0.328,0.716,0.471
			c0.065,0.054,0.13,0.104,0.195,0.165c0.009-0.013,0.016-0.024,0.025-0.038c0.485,0.262,0.989,0.461,1.504,0.612
			c2.86,10.108,9.009,18.964,17.453,25.239c-0.515,6.182-2.161,12.244-5.228,18.185c-3.423,2.093-7.599,0.579-11.183-0.413
			c-3.169-0.877-6.254-1.201-9.418-0.191c-0.655,0.209-0.959,0.727-0.992,1.264c-0.004,0.015-0.011,0.027-0.014,0.042
			c-0.24,1.031-0.48,2.062-0.72,3.093c-0.224,0.964,0.471,1.624,1.224,1.754c0.118,0.03,0.243,0.053,0.382,0.053h58.549
			c0.512,0,0.877-0.227,1.104-0.546c0.338-0.265,0.561-0.669,0.561-1.121v-2.143c0-0.634-0.434-1.177-1.016-1.357
			c-0.221-0.188-0.514-0.308-0.889-0.308H249.67c-0.877-1.016-1.771-2.041-2.697-3.056c-2.57-2.823-3.703-5.964-2.547-9.765
			c0.4-1.32,0.689-2.693,0.855-4.063c0.494-4.061,0.955-8.139,1.424-12.277c5.938-0.565,11.307-3.098,15.475-7.394
			c1.729-0.004,3.281-0.517,4.576-1.387l0.52-0.161c2.82,2.276,7.172,2.511,10.459,1.298c3.047-1.125,5.68-4.172,5.771-7.521
			c0.01-0.313-0.006-0.625-0.033-0.932C285.844,50.685,283.676,42.983,278.328,39.111z M226.687,57.508
			c0.034-0.013,0.061-0.022,0.095-0.035c0.614-0.233,1.682,0.034,2.234,0.464c0.778,0.604,1.515,1.264,2.234,1.936
			c0.015,0.057,0.015,0.11,0.033,0.168c1.099,3.672,2.198,7.346,3.296,11.018c0.262,1.851,0.429,3.689,0.52,5.519
			C229.414,71.9,226.304,64.959,226.687,57.508z M248.016,68.122c0.258-0.615,0.516-1.23,0.785-1.844c0.088,0,0.178,0,0.268-0.001
			c0-0.212,0.004-0.424,0.012-0.638c0.732-1.645,1.533-3.252,2.434-4.789c1.146,1.011,2.34,1.918,3.611,2.658
			C252.996,65.392,250.609,66.937,248.016,68.122z"/>
	</g>
</g>
</svg>
