<?xml version="1.0" encoding="utf-8"?>
<!-- Generator: Adobe Illustrator 16.0.0, SVG Export Plug-In . SVG Version: 6.00 Build 0)  -->
<!DOCTYPE svg PUBLIC "-//W3C//DTD SVG 1.1//EN" "http://www.w3.org/Graphics/SVG/1.1/DTD/svg11.dtd">
<svg version="1.1" id="Layer_1" xmlns="http://www.w3.org/2000/svg" xmlns:xlink="http://www.w3.org/1999/xlink" x="0px" y="0px"
	 width="478px" height="478px" viewBox="0 0 478 478" enable-background="new 0 0 478 478" xml:space="preserve">
<rect fill="#7F7F7F" stroke="#000000" stroke-miterlimit="10" width="478" height="478">



</rect>
<g transform="translate(0.000000,792.000000) scale(0.100000,-0.100000)">
	<path fill="#010101" d="M898.359,6763.979c-6.616-6.616-4.102-19.531,13.54-66.782c9.448-25.195,17.324-46.621,17.324-47.559
		c0-0.635-5.356-2.207-11.655-3.154c-35.596-5.981-91.035-34.648-119.702-61.738c-13.857-12.92-18.267-15.435-28.657-15.435
		c-18.276,0-30.239,9.761-65.522,55.122c-35.596,45.361-45.044,52.29-55.127,39.692c-3.149-4.097-5.986-10.708-5.986-15.122
		c0-10.083,28.984-77.803,42.524-99.224c33.706-53.237,45.679-74.336,45.679-79.697c0-3.462-8.818-16.06-19.844-27.72
		c-14.492-16.064-25.518-24.253-43.154-33.071c-27.725-13.862-31.504-19.531-40.952-63.003
		c-6.934-33.706-13.545-47.563-32.129-68.667c-7.876-8.506-22.998-28.037-33.701-43.477c-11.03-15.747-25.205-34.961-31.504-42.837
		c-6.299-8.188-19.849-30.556-29.927-49.765c-16.382-31.191-23.311-40.64-63.315-83.477c-24.57-26.465-46.304-51.343-48.506-54.814
		c-5.361-10.391-4.102-25.513,4.409-59.531c11.963-47.251,39.375-83.159,80.005-104.897c23.94-12.598,43.159-12.915,70.562-1.572
		c28.032,11.655,55.757,12.915,97.026,4.722c28.975-5.981,37.48-6.611,61.421-3.779c36.851,4.097,82.212,13.862,111.191,24.258
		c29.614,10.396,34.336,9.448,88.516-16.064c60.796-28.354,100.806-39.062,179.556-47.568
		c86.621-9.136,113.076-34.019,185.215-173.247c18.901-36.226,38.745-73.711,44.097-83.477
		c9.453-16.382,27.412-56.694,72.769-163.481c28.037-65.527,30.239-69.297,53.867-95.137
		c34.331-37.168,74.971-62.998,126.001-79.688c14.805-4.727,27.402-9.141,27.72-9.766c0.625-0.332-5.044-6.309-12.29-12.92
		c-68.35-60.791-88.203-79.053-122.217-112.451c-40.952-40-74.023-84.424-92.295-123.799c-8.823-18.271-9.448-22.354-8.188-44.727
		c1.26-20.166,3.462-29.307,12.91-49.141c21.738-45.674,38.433-66.162,107.417-133.877c40.01-39.375,80.322-82.539,102.69-110.254
		c93.555-115.273,191.519-204.434,240.029-218.604c2.837-0.947,10.4-11.65,17.012-24.258c17.012-32.451,48.511-63.623,70.874-70.557
		c21.104-6.289,57.017-9.766,63.315-5.986c3.779,2.52-0.63,19.844-26.46,108.359c-17.007,57.959-32.759,107.1-35.283,109.619
		c-2.515,2.52-18.267,7.871-35.278,11.973c-17.012,4.092-32.759,9.453-34.966,11.65c-3.462,3.145-2.52,8.506,4.097,28.35
		c12.598,37.793,6.616,48.828-35.908,63.945c-28.35,10.078-32.446,12.598-62.056,35.273c-26.46,20.176-45.361,37.812-59.531,55.449
		c-16.069,19.531-63.633,108.047-69.619,129.15c-12.915,44.727,4.409,86.631,46.934,113.721
		c17.324,10.703,74.653,38.105,145.215,69.297c29.297,12.598,59.541,29.297,89.775,49.141
		c48.516,31.816,68.037,50.391,85.684,80.938l10.078,17.656l31.504-64.268c25.513-51.338,39.375-75.283,69.297-118.125
		c69.927-98.916,156.553-243.486,203.486-338.936c33.389-68.35,46.621-108.359,55.127-167.578c3.467-23.945-2.52-39.688-26.46-67.09
		c-11.338-13.232-24.883-29.307-29.609-35.605c-5.044-6.299-15.435-14.473-24.253-18.262
		c-30.239-13.232-55.439-45.049-61.431-77.188l-2.202-11.973h109.937h110.244l6.621,7.246
		c21.426,22.695,28.037,72.773,13.848,104.277c-10.068,22.363-9.434,23.945,8.828,23.945c20.166,0,32.451,6.289,37.793,19.209
		c5.996,13.857-2.197,51.66-35.898,171.357c-30.244,106.172-65.205,242.236-74.658,289.805
		c-12.28,61.113-28.662,121.27-60.166,218.916c-5.356,16.377-17.319,45.996-26.46,65.84c-9.448,19.854-16.694,36.533-16.064,36.846
		c0.635,0.645,69.619,1.582,153.403,1.904l152.783,0.947l51.963-10.088c103.652-20.166,196.875-27.402,287.295-22.676
		c80.635,4.414,109.297,8.506,273.408,40.635l36.23,7.246l25.195-18.281c13.867-9.746,35.596-23.623,48.193-30.547
		c12.285-6.934,22.686-14.18,22.686-16.387c0-1.875-3.457-23.945-7.871-48.496c-9.766-54.824-9.766-57.021-0.625-70.254
		c13.213-19.844,43.779-22.051,60.166-4.414c3.447,3.789,13.535,26.143,22.041,49.141c8.506,23.32,16.387,43.164,17.637,44.727
		c1.895,2.207,42.852-5.029,46.309-8.184c0.938-1.26-0.625-17.959-3.457-37.48c-8.203-57.324-6.631-72.764,8.809-85.059
		c8.506-6.924,39.375-7.549,52.285-0.938c5.371,2.832,10.391,8.809,12.295,14.805c2.51,8.818,19.209,90.713,19.209,95.449
		c0,0.938,9.775,1.582,21.748,1.582h22.041l2.207-14.824c3.457-22.988-0.957-119.375-6.621-145.84
		c-2.832-12.91-8.828-32.129-13.232-42.529c-12.9-31.182-48.818-101.104-75.596-148.037c-13.867-24.258-29.297-51.982-34.023-61.426
		c-24.258-48.203-52.91-79.395-140.801-153.096c-36.855-30.869-76.553-65.518-88.203-77.178
		c-22.998-22.988-48.496-59.531-57.324-82.52c-5.049-13.242-7.871-15.762-28.037-26.465c-28.662-14.814-57.959-43.467-71.191-69.609
		l-9.766-19.551l112.451,0.645l112.773,0.938l31.816,59.551c17.637,32.734,34.336,60.781,36.855,62.051
		c3.145,1.895,8.828-0.645,18.271-8.203c7.549-5.977,16.377-11.016,19.854-11.016c6.602,0,34.941,28.037,56.055,55.439
		c7.559,10.068,29.932,45.352,49.473,78.115c69.287,116.553,68.975,116.23,183.945,201.924
		c51.035,38.115,95.137,73.076,97.969,77.49c2.52,4.404,15.43,53.535,28.359,108.662c14.16,61.436,27.08,109.941,33.066,124.111
		c12.91,30.234,29.609,59.863,37.48,67.422c6.299,5.342,6.621,5.342,11.025-1.895c24.893-41.27,33.076-53.232,48.516-72.764
		c10.068-12.607,35.908-40.957,57.646-63.633c42.832-44.424,58.261-64.893,77.792-103.955
		c28.672-57.012,45.683-113.398,62.07-204.746c13.223-74.658,15.117-96.709,11.328-131.982c-2.52-25.83-4.082-29.932-17.012-48.838
		c-17.324-25.195-20.791-34.316-20.791-53.223c0-14.492-0.635-15.742-28.35-43.145c-30.547-30.254-38.105-43.789-42.519-76.562
		l-2.207-16.387l109.628,0.645l109.922,0.938l12.295,21.416c17.334,29.932,17.959,42.217,4.092,73.408
		c-5.996,13.545-11.973,30.859-13.232,38.105c-1.885,11.66-0.947,14.189,5.674,21.113c4.727,4.727,14.492,8.828,25.518,11.338
		c14.814,3.154,18.584,5.039,22.686,13.232c5.342,10.078,5.02,11.65-3.164,52.91c-11.025,53.242-34.014,187.734-41.26,239.395
		c-4.092,30.254-9.756,70.254-12.607,88.848c-5.029,33.066-5.029,34.014,2.852,80.322c15.42,90.4,24.561,168.203,23.291,199.707
		c-0.938,29.287-1.562,31.494-17.314,62.998c-19.209,38.75-36.543,85.371-45.352,122.539c-5.059,21.094-6.943,41.885-8.203,97.959
		c-1.562,61.748-0.938,76.553,4.727,113.408c8.828,56.064,12.285,93.55,16.387,163.481c1.895,32.129,5.352,76.86,8.184,99.224
		c11.973,104.263,12.92,116.86,8.516,152.144c-9.141,80.327,0,41.577,17.939-74.966c17.646-114.663,22.061-154.351,22.061-211.055
		c0-26.777,2.52-86.309,5.352-132.285c5.674-91.045,5.986-213.896,0.625-257.363c-6.289-53.555-7.246-128.828-1.895-154.99
		c11.348-53.857,18.594-101.426,20.176-131.025c1.885-36.543,5.664-42.539,27.705-48.828c18.281-5.039,34.98-1.582,46.318,9.453
		l8.809,8.809v50.4c0,28.047-2.197,67.725-5.029,89.463c-4.727,37.168-4.727,66.465,0.635,128.516
		c1.562,19.219,0.938,21.738-9.141,38.438c-5.996,10.078-15.43,31.797-21.113,48.818l-10.078,30.869l1.572,72.461
		c0.947,40,3.779,86.621,6.631,104.258c6.289,41.895,8.496,517.856,2.822,582.749c-13.545,149.624-64.58,240.659-186.807,333.271
		c-48.174,36.226-104.248,62.056-187.089,85.679c-54.18,15.435-80.957,18.271-176.719,18.271c-78.115,0-88.838-0.63-133.877-8.193
		c-76.24-13.228-166.006-22.993-278.779-30.557c-27.715-1.885-82.832-5.669-122.842-8.496
		c-71.191-4.731-253.271-20.479-302.412-26.465c-13.857-1.572-53.545-5.039-88.193-7.876c-61.426-5.034-64.258-5.034-119.707,1.577
		c-38.115,4.409-91.338,7.559-163.154,9.448c-137.031,3.779-181.133,7.241-332.964,26.777
		c-114.033,14.805-172.305,19.839-275.625,23.936c-98.594,4.102-156.235,2.524-248.848-6.924
		c-206.328-20.474-339.888-20.474-431.553,0c-80.005,17.949-182.07,55.752-211.68,78.433l-7.246,5.352l7.876,16.694
		c17.642,38.12,15.122,40.01-106.152,82.534c-18.589,6.299-36.226,13.862-39.067,16.064c-3.145,2.52-16.689,18.584-30.859,35.908
		C910.01,6770.595,907.177,6772.797,898.359,6763.979z"/>
</g>
</svg>
