<?xml version="1.0" encoding="utf-8"?>
<!-- Generator: Adobe Illustrator 16.0.0, SVG Export Plug-In . SVG Version: 6.00 Build 0)  -->
<!DOCTYPE svg PUBLIC "-//W3C//DTD SVG 1.1//EN" "http://www.w3.org/Graphics/SVG/1.1/DTD/svg11.dtd">
<svg version="1.1" id="Layer_1" xmlns="http://www.w3.org/2000/svg" xmlns:xlink="http://www.w3.org/1999/xlink" x="0px" y="0px"
	 width="507px" height="507px" viewBox="561 75.5 507 507" enable-background="new 561 75.5 507 507" xml:space="preserve">
<rect x="561" y="75.5" fill="#7F7F7F" width="507" height="507"/>
<g transform="translate(0.000000,947.000000) scale(0.100000,-0.100000)">
	<path d="M7666.269,6734.799c-9.766-2.114-17.754-5.64-27.52-11.875c-5.645-3.643-8.945-4.941-14.59-5.527
		c-18.457-2.114-46.211-10.938-67.266-21.523c-19.629-9.756-25.508-16.108-34.336-37.51c-9.18-22.227-21.406-37.28-54.57-67.388
		c-35.996-32.69-50.684-48.447-63.379-67.617c-5.879-8.936-11.172-18.11-11.543-20.347c-0.449-2.354-0.449-7.764,0-12.231
		c2.129-22.93,16.484-44.805,34.824-53.271c4.59-1.997,7.637-2.349,22.93-2.349c14.941,0,19.883,0.464,32.344,3.174
		c27.402,6.113,51.504,9.644,81.973,11.992c12.227,1.06,20.566-1.294,30.566-8.35c15.41-10.938,25.996-26.812,32.227-48.096
		c14.102-48.809,20.82-67.036,37.988-105.015c6.113-13.408,17.168-38.462,24.57-55.63c13.887-32.104,19.766-43.511,36.816-72.207
		c12.812-21.636,14.453-23.989,26.934-38.921c22.695-27.402,26.465-30.464,63.496-52.803c43.75-26.226,65.156-34.575,105.84-40.928
		l9.414-1.411l0.703-35.278c0.586-32.222,0.938-36.572,3.75-49.98c1.66-8.115,4.473-19.17,6.25-24.697
		c4.688-15.527,5.156-32.812,1.172-51.855c-1.66-8.242-3.066-18.584-3.066-23.047c0-22.354-6.348-71.631-10.684-83.154
		c-2.48-6.572-7.305-13.984-14.473-21.875c-10-10.918-20.586-29.512-28.242-49.629c-2.344-6.113-6.094-9.98-27.969-28.34
		c-7.656-6.348-14.121-12.695-14.59-14.102c-4.238-13.535,7.168-19.297,42.461-21.523c25.859-1.641,47.5,9.043,57.852,28.457
		c1.992,3.76,5.996,13.291,8.945,21.045c2.949,7.764,8.594,21.182,12.578,29.873c8.594,18.574,13.047,34.697,16.348,60.332
		c1.289,9.873,3.047,22.461,3.77,27.988c0.703,5.527,3.047,17.168,5.156,25.869c4.473,18.34,4.941,21.055,6.465,42.344
		c1.309,18.223,6.25,55.029,8.828,64.912c2.012,7.764,10.703,29.404,16.699,41.509c5.879,11.758,16.699,40.811,16.816,44.692
		c0,3.169,1.777,0.938,3.535-4.707c2.109-6.704,6.113-14.463,12.93-24.81c7.305-11.177,8.477-15.41,12.344-42.808
		c6.133-44.219,10-56.211,36.464-111.602c11.875-25.059,18.359-42.812,23.984-65.391c1.895-7.754,5.059-19.16,7.07-25.283
		c4.473-14.229,5.391-21.172,3.75-29.98c-2.461-13.525-6.816-19.883-27.754-41.514c-11.406-11.885-19.629-21.299-20.098-23.174
		c-1.191-4.58,2.227-10.938,6.934-12.93c5.996-2.48,24.922-4.355,39.629-3.887c11.641,0.352,14.453,0.82,20.117,3.418
		c10.117,4.814,15.625,10.576,24.805,26.221c12.227,20.703,19.766,37.158,20.586,44.678c1.055,10.83-0.586,15.537-23.75,67.744
		c-3.301,7.646-6.484,17.402-8.242,25.41c-3.535,16.328-7.402,29.16-19.414,63.965c-16.094,46.572-15.508,43.75-15.391,72.324
		c0.117,25.166-1.074,42.1-4.121,58.799l-1.758,9.409l3.867,8.35l3.887,8.35l14.004,0.708c7.754,0.469,31.738,0.825,53.516,0.825
		c39.727,0,70.547,1.289,90.059,3.643c5.879,0.708,27.754,4.116,48.809,7.524c21.055,3.413,53.281,7.998,71.738,9.995
		c18.457,2.002,38.574,4.707,44.688,6.118c11.055,2.354,112.207,30.811,122.188,34.458c2.812,0.938,5.41,1.528,5.762,1.177
		c0.352-0.356,2.812-20.581,5.527-44.927c5.645-49.98,8.34-97.495,7.402-128.53l-0.703-19.414l-7.637-25.273
		c-4.238-13.887-9.297-31.641-11.406-39.414c-4.824-18.574-10.234-35.156-13.535-41.738c-1.523-2.93-5.977-8.936-9.863-13.516
		c-7.188-8.125-10.703-14.473-17.305-30.586c-3.633-8.936-17.148-27.754-26.914-37.51c-4.824-4.941-8.711-7.168-20.586-12.354
		c-21.641-9.404-41.641-19.521-52.676-26.689c-8.242-5.41-10.234-7.285-12.246-11.758c-3.516-8.008-2.109-10.117,9.297-13.77
		c11.992-3.867,19.648-5.4,31.992-6.23c24.805-1.758,43.613,5.771,66.797,26.826c7.051,6.338,11.992,9.639,21.406,13.984
		c17.051,7.998,22.695,14.111,40.215,43.525c18.574,31.035,19.746,33.379,27.871,52.197c6.699,15.527,11.758,29.99,21.992,63.516
		c5.059,16.582,9.883,26.455,22.695,46.68c17.988,28.574,20.566,40.918,17.988,85.024c-0.82,14.819,0.469,46.807,2.109,49.629
		c0.586,1.294,3.301-0.474,10.938-7.178c23.184-20.22,43.164-48.452,54.219-76.558c8.828-22.344,12.93-41.035,19.062-88.193
		c4.57-35.166,4.219-45.869-2.48-79.15c-4.59-22.354-6.465-27.285-18.34-47.041c-12.695-21.279-20.703-30.459-34.922-40.215
		c-5.527-3.77-13.184-9.766-16.953-13.174c-6.23-5.879-6.699-6.699-6.699-11.641c0-6.592,3.535-12.461,9.414-15.518
		c3.77-2.002,6.465-2.129,29.043-1.641c24.57,0.586,25.059,0.693,31.055,3.867c9.883,5.41,21.172,20.469,28.574,37.988
		c2.109,5.059,7.656,14.59,12.344,21.172c11.992,16.699,19.883,30.098,21.992,37.393c1.641,5.537,1.641,7.178-0.234,16.934
		c-1.992,11.289-1.875,20.215,0.703,45.156c0.703,6.465,0.938,15.176,0.469,19.404c-1.758,18.115,4.121,56.221,12.363,80.908
		c6.23,18.584,10.586,27.754,18.203,39.043c6.953,10.117,8.359,14.355,7.188,20.117c-0.938,4.229-13.398,23.867-29.512,46.333
		c-17.402,24.336-22.344,37.275-25.176,64.678c-3.418,32.808,2.012,59.15,20.938,102.31c9.883,22.583,21.523,56.685,24.805,72.915
		c5.176,25.518,5.781,48.213,2.012,77.495c-1.895,15.527-1.289,16.821,13.398,25.757c14.824,8.94,15.996,10.229,18.34,20.815
		c2.949,12.7,2.949,41.982,0,55.269c-6.348,29.287-21.152,55.273-42.559,74.912c-5.527,5.059-12.715,12.7-15.879,17.056
		c-18.457,24.697-60.215,51.86-98.789,64.326c-42.676,13.76-85.723,19.756-133.359,18.579
		c-47.617-1.294-85.371-4.941-118.301-11.406c-28.105-5.645-31.621-5.996-75.137-7.061c-48.926-1.172-55.996-1.758-103.496-9.404
		c-69.629-11.289-124.414-17.402-202.852-22.93c-4.473-0.239-19.648-1.411-33.515-2.588c-21.641-1.65-27.539-1.763-41.875-0.474
		c-11.641,1.06-25.41,1.182-44.805,0.708c-30.918-0.938-34.336-0.586-53.281,5.879c-30.918,10.464-66.66,28.579-95.254,48.096
		c-4.824,3.296-29.863,22.344-55.742,42.227c-25.742,19.985-51.152,39.038-56.445,42.451l-9.531,6.23l-6.348,15.171
		c-3.398,8.35-8.926,20.811-12.227,27.871l-5.879,12.583l-7.754-0.117C7677.792,6736.567,7670.605,6735.747,7666.269,6734.799z"/>
</g>
</svg>
