<?xml version="1.0" encoding="utf-8"?>
<!-- Generator: Adobe Illustrator 16.0.0, SVG Export Plug-In . SVG Version: 6.00 Build 0)  -->
<!DOCTYPE svg PUBLIC "-//W3C//DTD SVG 1.1//EN" "http://www.w3.org/Graphics/SVG/1.1/DTD/svg11.dtd">
<svg version="1.1" id="Layer_1" xmlns="http://www.w3.org/2000/svg" xmlns:xlink="http://www.w3.org/1999/xlink" x="0px" y="0px"
	 width="120px" height="120px" viewBox="0 0 120 120" enable-background="new 0 0 120 120" xml:space="preserve">
<rect fill="#7F7F7F" stroke="#000000" stroke-miterlimit="10" width="120" height="120"/>
<g transform="translate(0.000000,666.000000) scale(0.100000,-0.100000)">
	<path fill="#010101" d="M526.099,6325.395c-1.758-0.161-10-0.64-18.398-1.118c-22.72-1.279-58.403-4.561-65.2-5.996
		c-13.838-2.803-24.722-6.162-39.761-12.085c-10.396-4.16-32.397-14.238-40.239-18.56c-8.477-4.639-24.238-15.278-38.56-25.996
		c-13.843-10.405-26.079-17.764-44.644-26.963c-13.276-6.641-19.355-9.038-28.955-11.602c-15.044-3.916-60.562-11.357-76.885-12.397
		c-5.596-0.4-12.236-1.284-14.795-2.002c-5.522-1.602-10.962-5.356-14.082-9.922c-2.158-3.037-2.236-3.521-1.201-5.435
		c0.645-1.201,2.48-3.521,4.082-5.2c3.521-3.521,7.676-4.883,20.239-6.641c4.878-0.64,13.843-2.725,20-4.644l11.201-3.438
		l-0.083-3.12c-0.239-6.24-5.757-7.837-19.6-5.601c-14.878,2.397-26.641,0.879-31.68-4.16c-3.599-3.682-3.599-7.358,0.239-14.961
		c4.961-9.917,7.124-10.557,22.48-6.958c12.319,2.881,18.32,3.198,21.201,0.957c1.04-0.879,2.881-3.521,4.082-6.001
		c2.236-4.478,5.356-15.356,5.356-18.638c0-2.241-9.355-18.721-14.717-25.757c-21.279-28.164-31.602-36.001-69.282-53.047
		c-7.28-3.281-14.961-6.641-17.197-7.432c-4.16-1.523-11.602-7.998-11.602-10.166s24.961-28.076,29.282-30.391
		c6.958-3.77,12.319-4.883,20.557-4.248l7.358,0.557l11.206-4.16c8.716-3.281,13.115-5.43,20-10l8.794-5.84l45.205-0.479
		c64.878-0.635,127.52-2.549,136.157-4.072c9.36-1.602,14.961-3.848,19.277-7.607c4.404-3.916,6.162-7.51,6.162-12.549
		c-0.078-5.771-1.04-9.209-7.197-24.805c-6.719-16.875-10.645-23.926-16.802-29.844c-5.039-4.805-16.88-12.246-28.96-17.998
		c-11.362-5.439-17.202-12.646-17.598-21.523c-0.161-2.881,0.317-4.326,2.158-6.963c3.76-5.273,6.24-6.719,11.436-6.719
		c5.605,0.078,11.123,2.168,22.964,8.809c28.799,16.152,33.999,18.789,36.88,18.789c3.76,0,6.958,4.326,9.922,13.203
		c1.836,5.762,4.878,11.914,10.801,22.012c5.679,9.746,8.96,16.309,10.718,21.66c2.319,6.973,4.243,10.332,6.001,10.332
		c0.317,0,2.158-1.602,4.082-3.516c4.956-5.117,8.955-5.85,24.395-4.57c15.361,1.367,18.164,0.645,25.923-6.396
		c6.318-5.85,19.683-23.359,19.683-25.85c0-3.828-6.162-10.713-16.162-18.145c-7.119-5.293-11.68-7.129-25.044-10.332
		c-12.954-3.105-14.238-4.707-10.317-12.559c2.319-4.717,11.201-13.516,15.918-15.84c4.961-2.48,17.52-2.07,28.003,0.801
		c4.399,1.211,9.839,2.715,11.997,3.281c6.802,1.924,12.559,5.283,18.081,10.723c2.881,2.881,6.079,6.797,7.119,8.711
		c2.319,4.648,5.361,16.895,6.084,24.492l0.557,6.152l-4.878,4.492c-5.601,5.273-6.885,7.754-8.564,17.432
		c-1.914,10.967-1.758,12.158,1.841,13.682c2.563,1.035,5.522,1.201,21.045,0.723l18.076-0.488l21.924,3.125
		c44.399,6.396,61.196,8.164,107.046,10.879c24.395,1.523,23.994,1.367,51.592,14.316c10.635,5.039,24.561,10.967,30.879,13.125
		c21.68,7.52,42.48,14.004,49.756,15.684c2.812,0.635,12.002-1.289,17.363-3.613c5.283-2.227,10.488-7.988,14.082-15.43
		c4.082-8.564,4.961-13.281,3.438-17.93c-0.713-2.07-1.914-7.988-2.637-13.281c-1.279-9.189-3.438-17.432-5.439-21.035
		c-0.479-0.957-8.564-9.756-17.842-19.59c-27.285-28.887-31.68-34.316-37.832-46.807c-4.727-9.6-5.928-15.283-4.883-24.326
		c1.914-16.543,2.559-17.275,16.719-16.465c12.881,0.635,11.992,0.156,34.883,20.156c6.641,5.84,16.475,13.994,21.992,18.164
		c12.803,9.746,17.764,15.117,21.201,22.471c2.637,5.85,5.205,15.596,6.729,25.771c2.715,18.223,13.115,32.471,22.793,31.426
		c4.395-0.557,8.721-3.516,16.875-11.758l6.406-6.562l-0.078-8.955c-0.088-10.479-2.881-23.115-6.406-29.209
		c-7.998-13.672-18.643-29.824-22.793-34.707c-2.725-3.203-5.684-7.363-6.562-9.287c-2.08-4.795-1.523-9.834,1.436-12.959
		c2.559-2.715,10.879-6.562,18.086-8.477c5.117-1.367,5.518-1.367,9.189,0.078c2.725,1.035,5.928,3.516,11.523,9.121
		c8.799,8.721,12.08,13.359,20.322,28.32c3.203,5.84,8.564,14.961,12.002,20.4s7.832,12.959,9.756,16.641l3.525,6.719v22.646
		c0,12.871-0.322,23.828-0.801,25.508c-0.479,1.602-3.047,5.918-5.684,9.609c-8.398,11.445-18.398,27.031-21.191,32.949
		c-4.326,9.043-3.359,16.084,4.316,31.445c3.115,6.084,3.916,6.953,11.113,12.559c20.479,15.762,25.527,19.844,28.477,22.637
		c7.363,7.051,12.168,17.852,14.326,32.246c1.523,10.317,1.279,34.8-0.479,50.957c-1.279,11.284-1.436,15.122-0.801,21.201
		c1.279,11.924,2.646,13.999,16.318,25.439c16.084,13.359,28.164,19.121,40.4,19.199c6.406,0,10.967-4.077,9.766-8.877
		c-0.322-1.04-2.891-5.679-5.84-10.322c-10-15.918-10.244-16.875-11.523-37.598c-0.479-8.081-1.113-15.039-1.357-15.439
		s-0.645-11.04-0.967-23.76l-0.557-22.964l-2.559-5.117c-1.367-2.803-4.482-7.446-6.885-10.317
		c-9.033-10.801-10-12.969-10.078-21.758c0-3.848,0.322-4.727,1.758-5.762c3.359-2.402,13.525-0.967,21.367,2.949
		c6.875,3.438,14.238,13.848,18.398,26.084c1.914,5.522,3.76,25.684,2.959,31.685c-0.889,6.88,2.715,46.719,5.039,55.278
		c0.801,3.042,2.959,9.121,4.717,13.599c4.16,10.322,5.527,15.762,6.162,24.8c0.801,10.4-0.713,15.283-6.396,20.879
		c-3.525,3.364-5.361,4.482-10.166,6.001c-11.68,3.604-31.279,1.841-49.033-4.556c-15.762-5.684-19.521-6.24-24.805-4.082
		c-3.516,1.523-6.953,7.52-9.199,16.001c-4.238,16.719-21.113,44.316-34.639,56.958c-22.402,20.884-60.879,38.403-98.877,45.122
		c-13.203,2.319-19.6,2.959-70.488,7.119c-40,3.276-52.148,3.999-75.996,4.399c-15.605,0.322-62.559,1.279-104.395,2.08
		C557.222,6325.717,534.18,6325.957,526.099,6325.395z"/>
</g>
</svg>
