<?xml version="1.0" encoding="utf-8"?>
<!-- Generator: Adobe Illustrator 16.0.0, SVG Export Plug-In . SVG Version: 6.00 Build 0)  -->
<!DOCTYPE svg PUBLIC "-//W3C//DTD SVG 1.1//EN" "http://www.w3.org/Graphics/SVG/1.1/DTD/svg11.dtd">
<svg version="1.1" id="Layer_1" xmlns="http://www.w3.org/2000/svg" xmlns:xlink="http://www.w3.org/1999/xlink" x="0px" y="0px"
	 width="100px" height="100px" viewBox="0 0 100 100" enable-background="new 0 0 100 100" xml:space="preserve">
<rect fill="#7F7F7F" stroke="#000000" stroke-miterlimit="10" width="100" height="100"/>
<g transform="translate(0.000000,1280.000000) scale(0.100000,-0.100000)">
	<path fill="#010101" d="M207.871,12763.807c-1.533-0.365-4.736-1.533-7.144-2.559c-2.334-1.016-4.814-1.816-5.396-1.816
		c-0.659,0-4.009-0.951-7.505-2.109c-3.574-1.172-7.583-2.344-8.975-2.559c-1.455-0.215-5.684-2.48-9.473-4.883
		c-3.794-2.48-8.384-5.254-10.132-6.133c-2.334-1.23-3.643-2.539-4.741-4.805c-0.874-1.748-2.549-3.857-3.862-4.668
		c-1.313-0.801-3.433-2.109-4.741-2.91c-3.057-1.895-8.018-9.404-10.933-16.484c-2.188-5.381-2.402-5.605-6.05-7.139
		c-4.448-1.826-7.871-5.244-9.043-8.965c-0.508-1.533-0.796-6.348-0.723-11.299l0.146-8.594l-5.107-2.93
		c-14.507-8.379-19.756-14.727-20.483-24.561c-0.215-2.842-0.068-4.971,0.366-4.971c0.361,0,3.716,0.674,7.505,1.543
		c10.786,2.324,19.468,3.574,26.318,3.574h6.27l0.366-6.777c0.435-8.457,2.7-14.082,6.699-16.699
		c2.417-1.533,2.632-1.953,2.632-5.098c0-9.99,6.553-14.434,19.756-13.496c4.155,0.293,6.846,0,10.571-1.016
		c5.903-1.602,9.761-1.68,13.774-0.293c1.528,0.586,2.92,0.947,2.988,0.879c0.073-0.068-1.094-5.107-2.695-11.094
		c-23.11-88.135-29.668-118.223-34.116-157.07c-2.627-22.773-3.14-32.744-2.915-52.148c0.581-41.25,0.215-63.711-1.46-85.938
		c-1.382-18.457-1.455-23.047-0.801-29.902c2.188-22.148,9.473-37.383,27.847-58.242c28.281-32.07,37.393-41.113,53.726-53.359
		c18.154-13.711,34.561-22.09,49.209-25.156c16.548-3.418,29.092-10.059,68.599-36.445c26.318-17.637,28.433-19.766,34.702-35.498
		c7.578-19.111,12.974-25.01,40.381-43.594c6.348-4.375,13.779-9.775,16.411-11.963c2.617-2.188,4.878-4.082,4.951-4.16
		c0.508-0.352-3.643-15.898-6.929-26.152c-6.338-19.766-19.243-52.354-26.099-65.977c-1.968-3.945-3.125-5.332-4.951-6.055
		c-3.936-1.68-10.571-2.695-22.017-3.359c-12.246-0.723-14.722-1.465-23.037-6.27c-2.993-1.816-5.903-3.281-6.343-3.281
		c-2.036,0-6.997-6.709-8.452-11.523c-0.513-1.533-0.439-1.602,2.476-1.162c1.675,0.303,5.83,0.078,9.326-0.371
		c3.506-0.508,11.377-1.162,17.573-1.377l11.226-0.508l-11.226-7.432c-6.196-4.092-11.88-8.096-12.612-8.896
		c-1.895-2.109-2.188-6.924-0.879-12.686c0.659-2.764,1.177-6.924,1.177-9.336v-4.375l3.271,2.266
		c1.748,1.25,4.814,2.988,6.714,4.014c1.89,0.938,7.212,4.883,11.807,8.75c4.59,3.779,10.132,7.793,12.246,8.828
		c3.574,1.738,4.443,1.875,10.645,1.514c5.107-0.225,7.798-0.801,11.372-2.256c5.322-2.266,7.729-2.041,8.965,0.742
		c0.654,1.436,0.586,2.461-0.361,5.234c-2.695,7.52-1.094,14.004,5.684,23.252c8.965,12.246,19.834,38.936,39.365,97.031
		l8.896,26.465l9.404,6.338c11.592,7.891,13.633,9.844,21.724,21.514c8.384,12.1,9.482,12.9,18.149,13.76
		c6.636,0.596,39.443,5.488,41.123,6.074c0.581,0.137,0.942-2.129,1.24-7.52c1.162-19.678,2.031-31.484,2.686-35.576
		c0.371-2.471,2.852-12.021,5.469-21.143c3.062-10.928,4.888-18.584,5.181-22.227c0.366-5.244,0.288-5.84-1.968-9.99
		c-1.24-2.412-5.176-7.666-8.75-11.592l-6.343-7.217l-7.578-2.783c-15.674-5.742-23.911-12.891-26.758-23.311l-0.796-2.783
		l2.324,0.381c1.318,0.205,7.441,1.592,13.638,2.988c13.335,2.988,32.871,6.631,41.401,7.646
		c5.908,0.723,17.573,4.883,30.981,10.938c5.913,2.686,7.949,2.773,14.731,0.742c4.448-1.328,6.201-2.422,12.397-7.676
		c12.461-10.557,12.026-11.582,4.297,9.766c-7.944,21.797-7.944,21.797-20.708,28.574c-10.498,5.625-16.104,9.492-18.008,12.256
		c-1.89,2.92-5.679,18.232-9.614,39.521c-2.92,15.371-8.096,45.479-7.876,45.625c0.073,0.078,5.396,3.291,11.812,7.217
		c22.593,13.779,36.006,23.252,48.843,34.346c19.385,16.758,27.705,23.398,37.539,29.805c5.034,3.291,10.425,7.441,12.1,9.199
		c6.86,7.422,13.413,19.531,16.26,29.6c2.261,8.291,4.814,12.314,12.905,20.322c4.087,4.092,7.803,8.105,8.237,8.965
		c1.748,3.281,2.407,9.189,2.92,28.516c0.43,15.605,0.806,20.625,1.675,22.588c2.256,5.176,8.672,12.549,29.014,33.174
		c11.445,11.66,22.012,22.969,23.398,25.156c7.588,11.523,10.356,20.85,11.587,38.555c1.46,21.074,3.354,25.156,17.28,37.334
		c2.051,1.885,3.721,6.777,4.956,15.166c0.879,5.752,1.46,7.285,3.506,9.99c3.271,4.15,9.473,9.326,14.79,12.236
		c3.364,1.826,4.888,3.281,6.709,6.348c2.119,3.34,2.407,4.453,2.119,7.588c-0.146,2.041-1.162,5.752-2.261,8.369
		c-3.203,7.598-3.354,7.08,1.748,7.656c4.229,0.518,4.521,0.654,6.348,3.574c1.011,1.621,2.837,4.082,4.077,5.391
		c1.973,1.973,2.339,2.988,2.549,6.934c0.225,3.936,0.078,4.805-1.602,7.07c-2.915,3.926-3.867,6.484-5.107,13.193
		c-2.251,12.979-2.324,12.471,1.753,17.217c2.046,2.324,3.867,5.02,4.155,5.957c0.366,1.611-0.435,6.709-1.68,9.863
		c-0.498,1.289-0.142,1.289,7.441,0.781c8.892-0.576,11.743-1.816,17.349-7.578c2.266-2.334,3.135-2.764,4.155-2.188
		c2.769,1.465,3.789,10.859,1.758,15.82c-0.737,1.758-6.719,8.242-16.777,18.359l-15.601,15.684l-1.162,4.746
		c-0.586,2.617-1.089,6.768-1.089,9.316c0,4.531-0.083,4.678-3.73,8.613c-2.109,2.188-5.239,4.961-7.065,6.133
		c-2.915,1.895-3.931,2.188-8.452,2.188c-3.647,0-6.709-0.586-10.283-1.836c-2.769-1.016-5.176-1.826-5.317-1.826
		c-0.151,0-0.22,2.051-0.151,4.609c0.068,2.471,0.068,5.088,0.068,5.811c-0.068,0.674-2.471,3.809-5.459,6.953
		c-6.997,7.354-7.368,8.086-5.757,11.445c2.329,4.863-1.46,7.266-14.297,9.102l-8.379,1.152l-2.695,4.385l-2.627,4.307l-4.014-0.078
		l-3.931-0.078l-2.329,4.238c-2.7,4.883-5.034,6.406-10.649,6.992c-3.569,0.371-4.375,0.078-15.015-5.254
		c-14.585-7.285-22.529-12.1-26.392-15.967c-5.469-5.459-23.984-37.754-41.04-71.504c-8.604-16.992-10.425-20.059-17.793-29.746
		c-8.745-11.455-11.807-14.287-21.431-20.039c-13.779-8.242-18.291-10.283-27.554-12.549
		c-37.544-9.033-169.419-26.973-198.579-26.973c-6.558,0-13.491,2.324-25.078,8.379c-22.09,11.67-42.866,29.023-49.067,40.898
		c-4.302,8.164-9.106,25.742-17.349,62.617c-2.036,9.277-5.542,24.062-7.651,33.037c-9.111,37.393-14.067,45.928-41.924,71.943
		c-7.285,6.855-14.79,13.496-16.689,14.873c-5.83,4.229-12.974,7.139-20.557,8.311c-4.155,0.654-8.525,1.895-10.571,2.92
		c-3.867,1.963-14.146,9.033-14.146,9.697c0,0.215,1.46,2.031,3.208,4.082c4.302,4.668,6.562,10.566,6.055,15.664
		c-0.732,7.295-5.615,14.732-11.733,17.867C218.955,12764.168,211.953,12764.828,207.871,12763.807z"/>
</g>
</svg>
